<svg xmlns="http://www.w3.org/2000/svg" width="342.774" height="507" viewBox="0 0 342.774 507">
  <g id="logo" transform="translate(-9.611 -14.2)">
    <path id="Path_4" data-name="Path 4" d="M11.2,482.1a3.606,3.606,0,0,1,4-6q1.5,1.05,3.3,2.1c8.2,5,15.9,7.5,22.2,7.5,5.7,0,10.4-2.2,13.3-6.5h0c.2-.3.4-.5.4-.7a19.49,19.49,0,0,0,1.9-4.2,12.694,12.694,0,0,0-.5-8.6c-1.2-2.9-3.7-5.6-7.5-7.9h0a40.5,40.5,0,0,0-9.5-4c-9.7-2.7-16.8-6.6-20.7-11.7-4.2-5.7-4.5-12.5,0-20.8,3-5.5,9.1-8.9,16.9-9.5,6.7-.5,14.8,1.1,23,5.3a3.578,3.578,0,0,1-3.2,6.4c-7-3.6-13.7-4.9-19.2-4.5-5.3.4-9.4,2.5-11.1,5.8-3,5.5-3,9.8-.5,13.1,2.8,3.8,8.7,6.8,16.8,9.1A42.915,42.915,0,0,1,52,451.8h0A24.8,24.8,0,0,1,62.3,463a19.369,19.369,0,0,1,.8,13.4,24.635,24.635,0,0,1-2.7,6,6.415,6.415,0,0,0-.6,1h0c-4.3,6.4-11.1,9.6-19.3,9.6-7.6,0-16.5-2.8-25.9-8.5A38.6,38.6,0,0,0,11.2,482.1Z" fill="#eee"/>
    <path id="Path_5" data-name="Path 5" d="M75.1,415.2a3.606,3.606,0,0,1,7.2,0v74.3a3.606,3.606,0,0,1-7.2,0Z" fill="#eee"/>
    <path id="Path_6" data-name="Path 6" d="M82.5,461.5a3.624,3.624,0,1,1-5.6-4.6c5.5-6.7,11.7-10.8,17.8-12.6a22.92,22.92,0,0,1,12.4-.4,17.391,17.391,0,0,1,9.7,6.7,20.511,20.511,0,0,1,3.6,12.2v26.6a3.6,3.6,0,1,1-7.2,0V462.8a13.89,13.89,0,0,0-2.2-8.1,10.514,10.514,0,0,0-5.7-3.9,15.529,15.529,0,0,0-8.5.3C92,452.6,87,456,82.5,461.5Z" fill="#eee"/>
    <path id="Path_7" data-name="Path 7" d="M155.7,443.2a24.784,24.784,0,0,1,17.6,7.3h0a24.89,24.89,0,1,1-35.2,35.2h0a24.866,24.866,0,0,1,0-35.2h0a24.961,24.961,0,0,1,17.6-7.3Zm12.6,12.3a17.865,17.865,0,0,0-25.2,0h0a17.865,17.865,0,0,0,0,25.2h0a17.819,17.819,0,0,0,25.2-25.2Z" fill="#eee"/>
    <path id="Path_8" data-name="Path 8" d="M190.8,446.8a3.6,3.6,0,1,1,7.2,0v4.5a6.034,6.034,0,0,1,.8-.8h0a24.866,24.866,0,0,1,35.2,0h0a24.89,24.89,0,1,1-35.2,35.2h0a6.034,6.034,0,0,0-.8-.8v32.7a3.6,3.6,0,0,1-7.2,0V446.8Zm38.1,8.7a17.865,17.865,0,0,0-25.2,0h0a17.865,17.865,0,0,0,0,25.2h0a17.819,17.819,0,0,0,25.2-25.2Z" fill="#eee"/>
    <path id="Path_9" data-name="Path 9" d="M275.1,443.2a21.9,21.9,0,0,1,15.8,6.6,24.259,24.259,0,0,1,6,10.4c3.1,10.1-2.8,9.7-4.6,9.7H259.2a31.886,31.886,0,0,0,1.6,6.6,15.228,15.228,0,0,0,5.6,7,17.274,17.274,0,0,0,9.4,2.4,36.584,36.584,0,0,0,13.9-3.3,3.585,3.585,0,1,1,2.8,6.6,45.874,45.874,0,0,1-16.6,3.8,23.215,23.215,0,0,1-13.3-3.5,19.6,19.6,0,0,1-8.4-10.3c-3.4-10.1-3.5-20.1,5.1-29.4a21.351,21.351,0,0,1,15.8-6.6Zm10.8,11.7a15.21,15.21,0,0,0-21.6,0,18.445,18.445,0,0,0-4.7,7.7h31.1A20.957,20.957,0,0,0,285.9,454.9Z" fill="#eee"/>
    <path id="Path_10" data-name="Path 10" d="M329.7,443.2a21.9,21.9,0,0,1,15.8,6.6,24.259,24.259,0,0,1,6,10.4c3.1,10.1-2.8,9.7-4.6,9.7H313.8a31.886,31.886,0,0,0,1.6,6.6,15.228,15.228,0,0,0,5.6,7,17.274,17.274,0,0,0,9.4,2.4,36.584,36.584,0,0,0,13.9-3.3,3.585,3.585,0,1,1,2.8,6.6,45.874,45.874,0,0,1-16.6,3.8,23.215,23.215,0,0,1-13.3-3.5,19.6,19.6,0,0,1-8.4-10.3c-3.4-10.1-3.5-20.1,5.1-29.4a21.351,21.351,0,0,1,15.8-6.6Zm10.8,11.7a15.21,15.21,0,0,0-21.6,0,18.445,18.445,0,0,0-4.7,7.7h31.1A20.957,20.957,0,0,0,340.5,454.9Z" fill="#eee"/>
    <path id="Path_11" data-name="Path 11" d="M36.5,118.1h75.3c2.3-25.5,9.4-48.4,19.6-66.1,13.5-23.4,32.7-37.8,54.4-37.8S226.6,28.7,240.2,52c10.2,17.6,17.3,40.6,19.6,66.1H335c8.9,0,16.9,7.3,16.2,16.2L336.1,345c-1.9,26.4-18.5,41.5-42.6,41.5H78.1c-26.8,0-41-18.7-42.6-41.5L20.3,134.4c-.6-8.9,7.3-16.3,16.2-16.3Zm94.1,0H240.8c-2.2-22.1-8.3-41.7-17-56.7-10-17.5-23.6-28.4-38-28.4-14.5,0-28,10.9-38.2,28.5C138.9,76.4,132.9,96.1,130.6,118.1Z" fill="#eee"/>
    <path id="Path_12" data-name="Path 12" d="M131.1,312.6a7.628,7.628,0,0,1,8.6-12.6c2.2,1.5,4.5,3,7,4.5,17.6,10.7,33.8,16,47.3,16,12.2,0,22.1-4.6,28.4-13.9h0c.4-.7.8-1.1.9-1.4a37.609,37.609,0,0,0,4-9,27.037,27.037,0,0,0-1-18.4c-2.7-6.1-7.9-12-16-16.9h0a77.728,77.728,0,0,0-20.2-8.4c-20.6-5.8-35.8-14-44-25-9-12.1-9.7-26.7-.1-44.4,6.4-11.7,19.5-19,36.1-20.3,14.3-1.1,31.5,2.3,49,11.2a7.648,7.648,0,0,1-7,13.6c-14.9-7.6-29.1-10.5-40.9-9.6-11.3.9-19.9,5.3-23.7,12.3-6.4,11.7-6.3,20.9-1.1,27.9,6,8.1,18.5,14.4,35.9,19.3a99.015,99.015,0,0,1,24,10.1h0c10.9,6.6,18.2,14.9,22.1,23.9a42.363,42.363,0,0,1,1.8,28.7,49.808,49.808,0,0,1-5.7,12.8c-.6.9-1,1.6-1.3,2.1h0c-9.3,13.7-23.6,20.5-41,20.6-16.3,0-35.3-6-55.3-18.2A89.173,89.173,0,0,1,131.1,312.6Z" fill="#00adb5"/>
  </g>
</svg>
